<?xml version="1.0" encoding="UTF-8"?>
<!DOCTYPE svg PUBLIC "-//W3C//DTD SVG 1.1//EN" "http://www.w3.org/Graphics/SVG/1.1/DTD/svg11.dtd">
<svg xmlns="http://www.w3.org/2000/svg" version="1.1" width="180px" height="180px" style="shape-rendering:geometricPrecision; text-rendering:geometricPrecision; image-rendering:optimizeQuality; fill-rule:evenodd; clip-rule:evenodd" xmlns:xlink="http://www.w3.org/1999/xlink">
<g><path style="opacity:1" fill="#fefefe" d="M -0.5,-0.5 C 59.5,-0.5 119.5,-0.5 179.5,-0.5C 179.5,59.5 179.5,119.5 179.5,179.5C 119.5,179.5 59.5,179.5 -0.5,179.5C -0.5,119.5 -0.5,59.5 -0.5,-0.5 Z"/></g>
<g><path style="opacity:1" fill="#75caff" d="M 125.5,87.5 C 117.231,85.5302 108.565,84.8636 99.5,85.5C 101.303,77.4292 103.303,69.4292 105.5,61.5C 107.185,55.2617 109.018,48.9283 111,42.5C 111.785,40.714 112.951,39.214 114.5,38C 131.163,37.5001 147.83,37.3334 164.5,37.5C 160.95,53.3628 156.617,69.0295 151.5,84.5C 142.593,84.8999 133.926,85.8999 125.5,87.5 Z"/></g>
<g><path style="opacity:1" fill="#b5c1e9" d="M 30.5,45.5 C 51.6601,44.5027 72.9935,44.1694 94.5,44.5C 94.7373,45.791 94.404,46.791 93.5,47.5C 72.8599,45.5113 51.8599,44.8447 30.5,45.5 Z"/></g>
<g><path style="opacity:1" fill="#2848bf" d="M 30.5,45.5 C 51.8599,44.8447 72.8599,45.5113 93.5,47.5C 93.5,48.1667 93.1667,48.5 92.5,48.5C 82.3553,47.1679 71.8553,46.5013 61,46.5C 49.7894,46.5214 38.6227,46.8547 27.5,47.5C 27.9731,46.0937 28.9731,45.427 30.5,45.5 Z"/></g>
<g><path style="opacity:1" fill="#0128b4" d="M 92.5,48.5 C 91.7066,52.8805 90.7066,57.2138 89.5,61.5C 86.8127,61.3359 84.146,61.5026 81.5,62C 80.7894,63.2547 79.956,64.4214 79,65.5C 76.6052,74.8777 74.1052,84.211 71.5,93.5C 52.1373,94.154 33.1373,93.4874 14.5,91.5C 16.6098,87.4979 17.9431,83.1646 18.5,78.5C 18.5,77.8333 18.5,77.1667 18.5,76.5C 20.0739,74.8984 20.7406,72.8984 20.5,70.5C 20.5,70.1667 20.5,69.8333 20.5,69.5C 21.9238,67.4855 22.5905,65.1522 22.5,62.5C 23.1938,57.085 24.8605,52.085 27.5,47.5C 38.6227,46.8547 49.7894,46.5214 61,46.5C 71.8553,46.5013 82.3553,47.1679 92.5,48.5 Z"/></g>
<g><path style="opacity:1" fill="#187efe" d="M 89.5,61.5 C 94.8333,61.5 100.167,61.5 105.5,61.5C 103.303,69.4292 101.303,77.4292 99.5,85.5C 108.565,84.8636 117.231,85.5302 125.5,87.5C 120.984,104.568 116.317,121.568 111.5,138.5C 94.4042,140.464 77.0708,141.131 59.5,140.5C 60.3739,137.211 61.0405,133.877 61.5,130.5C 64.0895,117.96 67.4228,105.626 71.5,93.5C 74.1052,84.211 76.6052,74.8777 79,65.5C 79.956,64.4214 80.7894,63.2547 81.5,62C 84.146,61.5026 86.8127,61.3359 89.5,61.5 Z"/></g>
<g><path style="opacity:1" fill="#6275cf" d="M 22.5,62.5 C 22.5905,65.1522 21.9238,67.4855 20.5,69.5C 20.4095,66.8478 21.0762,64.5145 22.5,62.5 Z"/></g>
<g><path style="opacity:1" fill="#5e71ce" d="M 20.5,70.5 C 20.7406,72.8984 20.0739,74.8984 18.5,76.5C 18.2594,74.1016 18.9261,72.1016 20.5,70.5 Z"/></g>
<g><path style="opacity:1" fill="#4f62cb" d="M 18.5,78.5 C 17.9431,83.1646 16.6098,87.4979 14.5,91.5C 15.0569,86.8354 16.3902,82.5021 18.5,78.5 Z"/></g>
<g><path style="opacity:1" fill="#55a0ff" d="M 61.5,130.5 C 61.0405,133.877 60.3739,137.211 59.5,140.5C 77.0708,141.131 94.4042,140.464 111.5,138.5C 111.5,139.5 111.5,140.5 111.5,141.5C 93.8333,141.5 76.1667,141.5 58.5,141.5C 58.5165,137.466 59.5165,133.799 61.5,130.5 Z"/></g>
</svg>
