<?xml version="1.0" encoding="UTF-8"?>
<!DOCTYPE svg PUBLIC "-//W3C//DTD SVG 1.1//EN" "http://www.w3.org/Graphics/SVG/1.1/DTD/svg11.dtd">
<svg xmlns="http://www.w3.org/2000/svg" version="1.1" width="200px" height="200px" style="shape-rendering:geometricPrecision; text-rendering:geometricPrecision; image-rendering:optimizeQuality; fill-rule:evenodd; clip-rule:evenodd" xmlns:xlink="http://www.w3.org/1999/xlink">
<g><path style="opacity:1" fill="#010102" d="M -0.5,-0.5 C 66.1667,-0.5 132.833,-0.5 199.5,-0.5C 199.5,66.1667 199.5,132.833 199.5,199.5C 132.833,199.5 66.1667,199.5 -0.5,199.5C -0.5,132.833 -0.5,66.1667 -0.5,-0.5 Z"/></g>
<g><path style="opacity:1" fill="#fdfdfd" d="M 95.5,9.5 C 97.9892,9.29777 100.323,9.79777 102.5,11C 104.754,13.4442 107.087,15.6108 109.5,17.5C 111.944,16.2331 114.277,14.7331 116.5,13C 123.484,12.644 127.484,15.9773 128.5,23C 132.47,22.6743 136.47,22.6743 140.5,23C 144.795,26.0931 146.462,30.2597 145.5,35.5C 159.697,31.8639 165.197,37.1973 162,51.5C 172.316,52.492 176.649,58.1587 175,68.5C 180.86,72.4637 182.027,77.6304 178.5,84C 180.934,86.4336 183.434,88.9336 186,91.5C 186.497,93.8098 186.663,96.1432 186.5,98.5C 128.5,98.5 70.5,98.5 12.5,98.5C 11.5237,93.7748 13.0237,90.1082 17,87.5C 17.1667,86.6667 17.3333,85.8333 17.5,85C 15.7845,81.3251 15.2845,77.4918 16,73.5C 17,71.1667 18.6667,69.5 21,68.5C 19.3506,58.1587 23.6839,52.492 34,51.5C 30.8027,37.1973 36.3027,31.8639 50.5,35.5C 49.5384,30.2597 51.2051,26.0931 55.5,23C 59.5305,22.6743 63.5305,22.6743 67.5,23C 71.2012,11.8089 77.5345,9.97554 86.5,17.5C 89.4672,14.8702 92.4672,12.2036 95.5,9.5 Z"/></g>
<g><path style="opacity:1" fill="#181818" d="M 57.5,52.5 C 61.35,52.7007 62.35,54.5341 60.5,58C 59.2068,58.49 57.8734,58.6567 56.5,58.5C 56.3253,56.3792 56.6586,54.3792 57.5,52.5 Z"/></g>
<g><path style="opacity:1" fill="#191919" d="M 69.5,55.5 C 72.9656,56.109 73.9656,57.9423 72.5,61C 67.2894,61.5464 66.2894,59.713 69.5,55.5 Z"/></g>
<g><path style="opacity:1" fill="#1b1b1b" d="M 45.5,68.5 C 51.1755,68.8597 51.8421,70.8597 47.5,74.5C 44.6095,73.1627 43.9428,71.1627 45.5,68.5 Z"/></g>
<g><path style="opacity:1" fill="#0f0f0f" d="M 138.5,68.5 C 139.833,68.5 141.167,68.5 142.5,68.5C 142.5,70.1667 142.5,71.8333 142.5,73.5C 140.833,73.5 139.167,73.5 137.5,73.5C 137.366,71.7085 137.699,70.0418 138.5,68.5 Z"/></g>
<g><path style="opacity:1" fill="#101010" d="M 57.5,80.5 C 61.35,80.7007 62.35,82.5341 60.5,86C 56.5369,86.1177 55.5369,84.2843 57.5,80.5 Z"/></g>
<g><path style="opacity:1" fill="#147bda" d="M 188.5,107.5 C 159.174,106.167 129.508,105.5 99.5,105.5C 69.4924,105.5 39.8257,106.167 10.5,107.5C 9.59603,106.791 9.26269,105.791 9.5,104.5C 69.5,104.5 129.5,104.5 189.5,104.5C 189.737,105.791 189.404,106.791 188.5,107.5 Z"/></g>
<g><path style="opacity:1" fill="#178ffe" d="M 188.5,107.5 C 182.658,148.511 159.991,175.345 120.5,188C 77.92,195.458 45.0866,180.958 22,144.5C 15.6376,132.915 11.8042,120.582 10.5,107.5C 39.8257,106.167 69.4924,105.5 99.5,105.5C 129.508,105.5 159.174,106.167 188.5,107.5 Z"/></g>
</svg>
