<?xml version="1.0" encoding="UTF-8"?>
<!DOCTYPE svg PUBLIC "-//W3C//DTD SVG 1.1//EN" "http://www.w3.org/Graphics/SVG/1.1/DTD/svg11.dtd">
<svg xmlns="http://www.w3.org/2000/svg" version="1.1" width="24px" height="24px" style="shape-rendering:geometricPrecision; text-rendering:geometricPrecision; image-rendering:optimizeQuality; fill-rule:evenodd; clip-rule:evenodd" xmlns:xlink="http://www.w3.org/1999/xlink">
<g><path style="opacity:1" fill="#2b9938" d="M -0.5,-0.5 C 7.5,-0.5 15.5,-0.5 23.5,-0.5C 23.5,7.5 23.5,15.5 23.5,23.5C 15.5,23.5 7.5,23.5 -0.5,23.5C -0.5,15.5 -0.5,7.5 -0.5,-0.5 Z"/></g>
<g><path style="opacity:1" fill="#fefffe" d="M 4.5,4.5 C 5.5,4.5 6.5,4.5 7.5,4.5C 7.5,8.5 7.5,12.5 7.5,16.5C 10.1667,16.5 12.8333,16.5 15.5,16.5C 15.5,12.5 15.5,8.5 15.5,4.5C 16.5,4.5 17.5,4.5 18.5,4.5C 18.5,9.5 18.5,14.5 18.5,19.5C 13.8333,19.5 9.16667,19.5 4.5,19.5C 4.5,14.5 4.5,9.5 4.5,4.5 Z"/></g>
</svg>
